<svg xmlns="http://www.w3.org/2000/svg" viewBox="0 0 417.88 82.33"><defs><style>.cls-1{fill:#fff;}.cls-2{fill:#3d2645;}</style></defs><g id="Layer_2" data-name="Layer 2"><g id="Layer_1-2" data-name="Layer 1"><path class="cls-1" d="M38.36,53.46a22.22,22.22,0,0,1-16,6.26C6.69,59.72.06,48.94,0,38S7.11,15.76,22.34,15.76A21.74,21.74,0,0,1,37.82,22.2l-5.3,5.12a14.48,14.48,0,0,0-10.18-4C12.17,23.34,7.77,30.93,7.83,38s4.09,14.27,14.51,14.27A15.51,15.51,0,0,0,32.94,48Z"/><polygon class="cls-1" points="173.92 16.84 155.19 37.02 175.49 58.27 175.49 58.76 165.67 58.76 148.03 40.09 148.03 58.76 140.08 58.76 140.08 16.6 148.03 16.6 148.03 34.43 164.04 16.6 173.92 16.6 173.92 16.84"/><polygon class="cls-1" points="211.74 58.76 180.18 58.76 180.18 16.6 211.74 16.6 211.74 24.31 188.07 24.31 188.07 34 210.9 34 210.9 41.41 188.07 41.41 188.07 50.93 211.74 50.93 211.74 58.76"/><path class="cls-1" d="M257.57,58.75h-9.1L236.25,44.66h-8.07V58.75h-8V16.54c6.69,0,13.37.06,20.05.06,9.94.06,15.18,6.68,15.18,14,0,5.78-2.65,11.62-10.66,13.25l12.77,14.39ZM228.18,24V37.5h12.1c5.06,0,7.23-3.38,7.23-6.75S245.28,24,240.28,24Z"/><rect class="cls-1" x="264.07" y="16.6" width="7.89" height="42.16"/><polygon class="cls-1" points="310.8 44.96 310.8 16.6 318.75 16.6 318.75 58.76 312.31 58.76 289.91 30.69 289.91 58.76 281.96 58.76 281.96 16.6 288.4 16.6 310.8 44.96"/><path class="cls-1" d="M369.58,37.92c-.12,10.9-6.81,21.8-21.62,21.8S326.28,49.06,326.28,38c0-13.31,9.64-22.22,21.86-22.22,14.39.12,21.56,11.2,21.44,22.16M348,52.43c9.94,0,13.67-7.47,13.79-14.39S357.84,23.16,348.14,23c-9,0-14.27,6.75-14,15.12C334.29,45,338,52.43,348,52.43"/><path class="cls-1" d="M417.88,37.92c-.12,10.9-6.81,21.8-21.62,21.8S374.58,49.06,374.58,38c0-13.31,9.63-22.22,21.86-22.22,14.39.12,21.56,11.2,21.44,22.16M396.26,52.43c9.94,0,13.67-7.47,13.79-14.39S406.13,23.16,396.44,23c-9,0-14.27,6.75-14,15.12.18,6.92,3.91,14.33,13.85,14.33"/><path class="cls-2" d="M64.41,74.07a3,3,0,0,0-2.5-1.18c-1.47,0-2.18.62-2.18,1.4s1.08,1.18,2.35,1.33c2.2.27,4.24.84,4.24,3.35,0,2.35-2.07,3.36-4.42,3.36-2.16,0-3.81-.66-4.59-2.59L59,78.88a3,3,0,0,0,3,1.68c1.25,0,2.42-.44,2.42-1.59,0-1-1-1.39-2.44-1.54-2.15-.26-4.14-.83-4.14-3.2,0-2.16,2.14-3,4.08-3.07,1.64,0,3.34.47,4.14,2.1Z"/><polygon class="cls-2" points="82.83 82.08 82.83 77.82 77.66 77.82 77.66 82.08 75.67 82.08 75.67 71.54 77.66 71.54 77.66 75.98 82.83 75.98 82.83 71.54 84.81 71.54 84.81 82.08 82.83 82.08"/><path class="cls-2" d="M102.21,80.07H96.7l-.91,2H93.64l4.73-10.54h2.16l4.73,10.54h-2.17Zm-2.76-6.33-2,4.48h3.92Z"/><path class="cls-2" d="M123.43,82.06h-2.27l-3.06-3.52h-2v3.52h-2V71.51h5A3.5,3.5,0,0,1,122.9,75a3.13,3.13,0,0,1-2.66,3.31l3.19,3.6Zm-7.35-8.68v3.37h3a1.69,1.69,0,1,0,0-3.37Z"/><polygon class="cls-2" points="140.48 82.06 132.59 82.06 132.59 71.52 140.48 71.52 140.48 73.45 134.56 73.45 134.56 75.88 140.27 75.88 140.27 77.73 134.56 77.73 134.56 80.11 140.48 80.11 140.48 82.06"/><polygon class="cls-2" points="164.68 75.87 167.48 71.52 169.87 71.52 169.87 71.61 165.67 77.71 165.67 82.06 163.68 82.06 163.68 77.71 159.63 71.61 159.63 71.52 162 71.52 164.68 75.87"/><path class="cls-2" d="M188.19,76.85a5.42,5.42,0,1,1-10.83,0,5.34,5.34,0,0,1,5.47-5.56,5.24,5.24,0,0,1,5.36,5.54m-5.41,3.63a3.34,3.34,0,0,0,3.45-3.6,3.47,3.47,0,1,0-6.91,0,3.34,3.34,0,0,0,3.46,3.58"/><path class="cls-2" d="M206.7,71.54v6c0,3.11-1.91,4.71-4.56,4.71a4.4,4.4,0,0,1-4.68-4.71v-6h2v6a2.58,2.58,0,0,0,2.72,2.9c1.65,0,2.58-1.1,2.58-2.9v-6Z"/><path class="cls-2" d="M225.94,82.06h-2.28l-3-3.52h-2v3.52h-2V71.51h5a3.5,3.5,0,0,1,3.8,3.5,3.13,3.13,0,0,1-2.67,3.31l3.2,3.6Zm-7.35-8.68v3.37h3a1.69,1.69,0,1,0,0-3.37Z"/><path class="cls-2" d="M255.27,80.74a5.57,5.57,0,0,1-4,1.56,5.19,5.19,0,0,1-5.59-5.43,5.31,5.31,0,0,1,5.59-5.56,5.44,5.44,0,0,1,3.87,1.61L253.8,74.2a3.63,3.63,0,0,0-2.54-1,3.46,3.46,0,0,0-3.63,3.66,3.39,3.39,0,0,0,3.63,3.57,3.89,3.89,0,0,0,2.65-1.07Z"/><path class="cls-2" d="M273.46,71.54v6c0,3.11-1.91,4.71-4.56,4.71a4.4,4.4,0,0,1-4.68-4.71v-6h2v6a2.58,2.58,0,0,0,2.73,2.9c1.64,0,2.57-1.1,2.57-2.9v-6Z"/><polygon class="cls-2" points="285.35 71.52 285.35 80.22 290.77 80.22 290.77 82.06 283.36 82.06 283.36 71.52 285.35 71.52"/><polygon class="cls-2" points="300.81 73.33 297.46 73.33 297.46 71.52 306.14 71.52 306.14 73.33 302.79 73.33 302.79 82.06 300.81 82.06 300.81 73.33"/><path class="cls-2" d="M324.29,71.54v6c0,3.11-1.91,4.71-4.57,4.71A4.4,4.4,0,0,1,315,77.58v-6h2v6a2.58,2.58,0,0,0,2.72,2.9c1.64,0,2.57-1.1,2.57-2.9v-6Z"/><path class="cls-2" d="M343.52,82.06h-2.27l-3.06-3.52h-2v3.52h-2V71.51h5A3.5,3.5,0,0,1,343,75a3.13,3.13,0,0,1-2.66,3.31l3.19,3.6Zm-7.35-8.68v3.37h3a1.69,1.69,0,1,0,0-3.37Z"/><polygon class="cls-2" points="360.57 82.06 352.69 82.06 352.69 71.52 360.57 71.52 360.57 73.45 354.66 73.45 354.66 75.88 360.36 75.88 360.36 77.73 354.66 77.73 354.66 80.11 360.57 80.11 360.57 82.06"/><path class="cls-1" d="M92.33,39H88.61a21.11,21.11,0,0,0,6.44,13.78,22.94,22.94,0,0,0,31.83,0,21.15,21.15,0,0,0,6.46-14Z"/><path class="cls-2" d="M111.79,14.44V12.78a1.15,1.15,0,0,0-1.15-1.14,1.14,1.14,0,0,0-1.14,1.15v1.66A22.69,22.69,0,0,0,88.05,37.19L133.43,37a22.7,22.7,0,0,0-21.64-22.57M92.46,37.18h-2.3a20.58,20.58,0,0,1,20.5-20.66q.57,0,1.14,0A20.57,20.57,0,0,0,92.46,37.18"/><path class="cls-2" d="M62.88,0a9.43,9.43,0,0,0-4.57,6.46c-.69,3.71.42,7.09,2,10.38,1.11,2.36,2.32,4.68,3.38,7.06,1.58,3.55,1.29,7.18.19,10.79-.17.56-.36,1.12-.53,1.67,0,.06,0,.13,0,.27a1.57,1.57,0,0,0,.43-.21,12.66,12.66,0,0,0,4.29-11.88,25.83,25.83,0,0,0-3.66-9.68c-.75-1.27-1.42-2.6-2.07-3.93a10.62,10.62,0,0,1-.07-9.47c.18-.4.34-.8.61-1.46"/><path class="cls-2" d="M56.94,33.17a8.6,8.6,0,0,0,3.5-6.64A15,15,0,0,0,58,18.19c-.64-1.11-1.24-2.24-1.78-3.39A6.92,6.92,0,0,1,56,9.08c.18-.44.34-.89.61-1.62a6.53,6.53,0,0,0-3.18,4.87,10.71,10.71,0,0,0,1,5.84c.68,1.46,1.36,2.92,2.12,4.34a11.07,11.07,0,0,1,.9,8.79l-.54,1.87"/><path class="cls-2" d="M69.5,4.77a6.46,6.46,0,0,0-2.94,6.69,19.83,19.83,0,0,0,2.23,6,26.61,26.61,0,0,1,1.74,4.08,9.8,9.8,0,0,1-.22,5.72c-.13.46-.27.92-.48,1.61A7.86,7.86,0,0,0,73,23.06a13.31,13.31,0,0,0-1.83-7.63c-.63-1.13-1.28-2.25-1.86-3.41a7,7,0,0,1-.19-6.28c.11-.25.19-.53.34-1"/><path class="cls-1" d="M73.72,17.38a14.71,14.71,0,0,1,.87,6.2A9.68,9.68,0,0,1,73.73,27,14.82,14.82,0,1,1,55.81,24.6a11.6,11.6,0,0,0-.61-1.36c-.8-1.51-1.52-3-2.15-4.41-.21-.45-.37-.9-.53-1.35a22.62,22.62,0,1,0,21.2-.1"/></g></g></svg>