<svg xmlns="http://www.w3.org/2000/svg" width="51.864" height="47.484" viewBox="0 0 51.864 47.484">
  <g id="Union_1" data-name="Union 1" transform="translate(-48.266 1303.734)" fill="none">
    <path d="M52.786-1277.82l-.089-.089a15.128,15.128,0,0,1,0-21.394,15.128,15.128,0,0,1,21.394,0l.089.089a15.252,15.252,0,0,1,21.482.088,15.251,15.251,0,0,1,.088,21.482h0l-.088.088L74.356-1256.25Z" stroke="none"/>
    <path d="M 74.356201171875 -1261.906616210938 L 92.83258056640625 -1280.382934570313 L 92.86045074462891 -1280.410888671875 L 92.89891052246094 -1280.449951171875 C 94.99349975585938 -1282.578002929688 96.14084625244141 -1285.3955078125 96.12960052490234 -1288.383422851563 C 96.11834716796875 -1291.372802734375 94.94783782958984 -1294.183227539063 92.83326721191406 -1296.297485351563 C 90.70800018310547 -1298.423095703125 87.88223266601563 -1299.59375 84.87651062011719 -1299.59375 C 81.90489959716797 -1299.59375 79.10244750976563 -1298.4462890625 76.98540496826172 -1296.363037109375 L 74.15804290771484 -1293.58056640625 L 71.35220336914063 -1296.384643554688 L 71.26227569580078 -1296.474487304688 C 69.16059112548828 -1298.576171875 66.36616516113281 -1299.733642578125 63.39375686645508 -1299.733642578125 C 60.42133331298828 -1299.733642578125 57.62691116333008 -1298.576171875 55.52522277832031 -1296.474609375 C 53.42354583740234 -1294.372924804688 52.2661018371582 -1291.578491210938 52.2661018371582 -1288.606079101563 C 52.2661018371582 -1285.633666992188 53.42354583740234 -1282.839233398438 55.5254020690918 -1280.737426757813 L 55.61433410644531 -1280.6484375 L 74.356201171875 -1261.906616210938 M 74.356201171875 -1256.249755859375 L 52.7859001159668 -1277.820068359375 L 52.69680023193359 -1277.9091796875 C 46.78919982910156 -1283.816772460938 46.78919982910156 -1293.395385742188 52.69680023193359 -1299.302978515625 C 55.65060043334961 -1302.256713867188 59.52217483520508 -1303.733642578125 63.39375305175781 -1303.733642578125 C 67.26532745361328 -1303.733642578125 71.13690185546875 -1302.256713867188 74.0906982421875 -1299.302978515625 L 74.17974853515625 -1299.213989257813 C 77.14676666259766 -1302.1337890625 81.01171875 -1303.59375 84.87651062011719 -1303.59375 C 88.78018188476563 -1303.59375 92.68369293212891 -1302.104370117188 95.66190338134766 -1299.125732421875 C 101.5895538330078 -1293.198974609375 101.6187591552734 -1283.607055664063 95.74971008300781 -1277.64404296875 L 95.75009918212891 -1277.643676757813 L 95.66190338134766 -1277.555419921875 L 74.356201171875 -1256.249755859375 Z" stroke="none" fill="#bac8d9"/>
  </g>
</svg>
