<svg xmlns="http://www.w3.org/2000/svg" width="51.864" height="47.484" viewBox="0 0 51.864 47.484">
  <g id="Union_1" data-name="Union 1" transform="translate(-48.266 1303.734)">
    <path id="Path_64" data-name="Path 64" d="M52.786-1277.82l-.089-.089a15.128,15.128,0,0,1,0-21.394,15.128,15.128,0,0,1,21.394,0l.089.089a15.252,15.252,0,0,1,21.482.088,15.251,15.251,0,0,1,.088,21.482h0l-.088.088L74.356-1256.25Z" fill="none"/>
    <path id="Path_65" data-name="Path 65" d="M74.356-1261.91l18.476-18.47.028-.03.038-.04a11.189,11.189,0,0,0,3.231-7.93,11.2,11.2,0,0,0-3.3-7.92,11.2,11.2,0,0,0-7.957-3.29,11.156,11.156,0,0,0-7.891,3.23l-2.827,2.78-2.806-2.8-.09-.09a11.021,11.021,0,0,0-7.868-3.26,11.021,11.021,0,0,0-7.869,3.26,11.036,11.036,0,0,0-3.259,7.86,11.042,11.042,0,0,0,3.259,7.87l.089.09,18.742,18.74m0,5.66-21.57-21.57-.089-.09a15.123,15.123,0,0,1,0-21.39,15.054,15.054,0,0,1,10.7-4.43,15.054,15.054,0,0,1,10.7,4.43l.089.09a15.2,15.2,0,0,1,10.7-4.38,15.232,15.232,0,0,1,10.785,4.46,15.261,15.261,0,0,1,.088,21.49h0l-.088.08Z"/>
  </g>
</svg>
